<?xml version="1.0" standalone="no"?>
<!DOCTYPE svg PUBLIC "-//W3C//DTD SVG 20010904//EN"
 "http://www.w3.org/TR/2001/REC-SVG-20010904/DTD/svg10.dtd">
<svg version="1.0" xmlns="http://www.w3.org/2000/svg"
 width="1600.000000pt" height="1600.000000pt" viewBox="0 0 1600.000000 1600.000000"
 preserveAspectRatio="xMidYMid meet">
<metadata>
Created by potrace 1.14, written by Peter Selinger 2001-2017
</metadata>
<g transform="translate(0.000000,1600.000000) scale(0.100000,-0.100000)"
fill="#000000" stroke="none">
<path d="M7560 15969 c-261 -15 -774 -72 -792 -88 -4 -4 1221 -1235 2722
-2736 l2730 -2730 0 2185 0 2185 -137 82 c-216 128 -290 167 -542 292 -974
482 -2004 750 -3111 811 -211 11 -656 11 -870 -1z"/>
<path d="M6145 15765 c-5 -2 -98 -27 -205 -55 -224 -59 -629 -191 -840 -275
-1376 -544 -2551 -1435 -3454 -2617 l-97 -128 3863 0 3863 0 -1540 1540
c-1060 1060 -1546 1540 -1560 1539 -11 0 -24 -2 -30 -4z"/>
<path d="M12700 10598 l0 -3863 1542 1542 1542 1542 -28 118 c-74 306 -188
661 -310 972 -483 1224 -1245 2297 -2238 3149 -139 119 -384 315 -475 380
l-33 23 0 -3863z"/>
<path d="M1158 12097 c-106 -180 -200 -350 -286 -523 -708 -1415 -976 -3000
-776 -4594 14 -112 29 -210 32 -217 5 -8 939 919 2737 2717 l2730 2730 -2185
0 -2185 0 -67 -113z"/>
<path d="M1776 7721 l-1538 -1538 17 -74 c53 -236 174 -630 277 -904 536
-1423 1443 -2640 2661 -3569 l127 -97 0 3860 c0 2124 -1 3861 -3 3861 -1 0
-694 -692 -1541 -1539z"/>
<path d="M13162 6527 c-1497 -1497 -2722 -2725 -2722 -2730 0 -4 980 -7 2178
-7 l2179 0 76 128 c564 947 930 2021 1061 3117 66 544 73 1202 21 1735 -19
196 -57 480 -64 480 -3 0 -1231 -1225 -2729 -2723z"/>
<path d="M3800 3392 l0 -2178 148 -86 c502 -293 957 -503 1466 -677 649 -222
1278 -351 2006 -411 213 -18 746 -24 985 -11 301 16 819 70 849 88 8 6 -5432
5453 -5446 5453 -5 0 -8 -980 -8 -2178z"/>
<path d="M8287 1768 l1542 -1542 98 23 c790 189 1642 554 2369 1016 651 413
1263 945 1772 1537 119 139 315 384 380 476 l23 32 -3863 0 -3863 0 1542
-1542z"/>
</g>
</svg>
